<?xml version="1.0" standalone="no"?>
 <!DOCTYPE svg PUBLIC "-//W3C//DTD SVG 1.1//EN" 
 "http://www.w3.org/Graphics/SVG/1.1/DTD/svg11.dtd"> 
<svg
  xmlns:svg="http://www.w3.org/2000/svg"
  xmlns="http://www.w3.org/2000/svg"
  xmlns:xlink="http://www.w3.org/1999/xlink"
  version="1.1"
  width="9.593580cm" height="2.702560cm" viewBox="0 0 37770 10640">
<title>SVG Picture created as light-bar-F_Cu.svg date 2020/10/08 23:04:07 </title>
  <desc>Picture generated by PCBNEW </desc>
<g style="fill:#000000; fill-opacity:1;stroke:#000000; stroke-opacity:1;
stroke-linecap:round; stroke-linejoin:round;"
 transform="translate(0 0) scale(1 1)">
</g>
<g style="fill:#000000; fill-opacity:0.0; 
stroke:#000000; stroke-width:-0.000393701; stroke-opacity:1; 
stroke-linecap:round; stroke-linejoin:round;">
<g >
</g>
<g style="fill:#000000; fill-opacity:0.0; 
stroke:#000000; stroke-width:669.291; stroke-opacity:1; 
stroke-linecap:round; stroke-linejoin:round;">
<path d="M30040 8900
L30040 9018
" />
</g>
<g style="fill:#000000; fill-opacity:0.0; 
stroke:#000000; stroke-width:0; stroke-opacity:1; 
stroke-linecap:round; stroke-linejoin:round;">
</g>
<g style="fill:#000000; fill-opacity:1.0; 
stroke:#000000; stroke-width:0; stroke-opacity:1; 
stroke-linecap:round; stroke-linejoin:round;">
<path style="fill:#000000; fill-opacity:1.0; 
stroke:#000000; stroke-width:0; stroke-opacity:1; 
stroke-linecap:round; stroke-linejoin:round;fill-rule:evenodd;"
d="M 30779.2,8566.42
30769.6,8567.84
30760.3,8570.18
30751.2,8573.44
30742.4,8577.57
30734.2,8582.53
30726.4,8588.29
30719.2,8594.77
30712.8,8601.93
30707,8609.69
30702,8617.97
30697.9,8626.7
30694.7,8635.8
30692.3,8645.17
30690.9,8654.72
30690.4,8664.37
30690.4,9254.92
30690.9,9264.57
30692.3,9274.12
30694.7,9283.49
30697.9,9292.59
30702,9301.32
30707,9309.6
30712.8,9317.36
30719.2,9324.52
30726.4,9331.01
30734.2,9336.76
30742.4,9341.72
30751.2,9345.85
30760.3,9349.11
30769.6,9351.46
30779.2,9352.87
30788.8,9353.35
31261.3,9353.35
31270.9,9352.87
31280.5,9351.46
31289.9,9349.11
31298.9,9345.85
31307.7,9341.72
31316,9336.76
31323.7,9331.01
31330.9,9324.52
31337.4,9317.36
31343.1,9309.6
31348.1,9301.32
31352.2,9292.59
31355.5,9283.49
31357.8,9274.12
31359.2,9264.57
31359.7,9254.92
31359.7,8664.37
31359.2,8654.72
31357.8,8645.17
31355.5,8635.8
31352.2,8626.7
31348.1,8617.97
31343.1,8609.69
31337.4,8601.93
31330.9,8594.77
31323.7,8588.29
31316,8582.53
31307.7,8577.57
31298.9,8573.44
31289.9,8570.18
31280.5,8567.84
31270.9,8566.42
31261.3,8565.94
30788.8,8565.94
Z" /> 
</g>
<g >
</g>
<g style="fill:#000000; fill-opacity:1.0; 
stroke:#000000; stroke-width:0; stroke-opacity:1; 
stroke-linecap:round; stroke-linejoin:round;">
<circle cx="7462.07" cy="7463.58" r="984.252" /> 
</g>
<g style="fill:#000000; fill-opacity:1.0; 
stroke:#000000; stroke-width:39.3701; stroke-opacity:1; 
stroke-linecap:round; stroke-linejoin:round;">
</g>
<g >
</g>
<g style="fill:#000000; fill-opacity:1.0; 
stroke:#000000; stroke-width:39.3701; stroke-opacity:1; 
stroke-linecap:round; stroke-linejoin:round;">
</g>
<g style="fill:#000000; fill-opacity:1.0; 
stroke:#000000; stroke-width:0; stroke-opacity:1; 
stroke-linecap:round; stroke-linejoin:round;">
<circle cx="32068.4" cy="7502.95" r="984.252" /> 
</g>
<g style="fill:#000000; fill-opacity:1.0; 
stroke:#000000; stroke-width:39.3701; stroke-opacity:1; 
stroke-linecap:round; stroke-linejoin:round;">
</g>
<g >
</g>
<g style="fill:#000000; fill-opacity:1.0; 
stroke:#000000; stroke-width:39.3701; stroke-opacity:1; 
stroke-linecap:round; stroke-linejoin:round;">
</g>
<g style="fill:#000000; fill-opacity:1.0; 
stroke:#000000; stroke-width:0; stroke-opacity:1; 
stroke-linecap:round; stroke-linejoin:round;">
<path style="fill:#000000; fill-opacity:1.0; 
stroke:#000000; stroke-width:0; stroke-opacity:1; 
stroke-linecap:round; stroke-linejoin:round;fill-rule:evenodd;"
d="M 10737.6,7847.9
10728.3,7849.29
10719.2,7851.57
10710.3,7854.75
10701.8,7858.77
10693.7,7863.61
10686.1,7869.22
10679.2,7875.55
10672.8,7882.53
10667.2,7890.09
10662.4,7898.17
10658.4,7906.68
10655.2,7915.55
10652.9,7924.68
10651.5,7934
10651,7943.41
10651,8135.33
10651.5,8144.74
10652.9,8154.06
10655.2,8163.19
10658.4,8172.06
10662.4,8180.57
10667.2,8188.65
10672.8,8196.21
10679.2,8203.19
10686.1,8209.52
10693.7,8215.13
10701.8,8219.97
10710.3,8223.99
10719.2,8227.17
10728.3,8229.46
10737.6,8230.84
10747,8231.3
11106.3,8231.3
11115.7,8230.84
11125,8229.46
11134.1,8227.17
11143,8223.99
11151.5,8219.97
11159.6,8215.13
11167.1,8209.52
11174.1,8203.19
11180.4,8196.21
11186.1,8188.65
11190.9,8180.57
11194.9,8172.06
11198.1,8163.19
11200.4,8154.06
11201.8,8144.74
11202.2,8135.33
11202.2,7943.41
11201.8,7934
11200.4,7924.68
11198.1,7915.55
11194.9,7906.68
11190.9,7898.17
11186.1,7890.09
11180.4,7882.53
11174.1,7875.55
11167.1,7869.22
11159.6,7863.61
11151.5,7858.77
11143,7854.75
11134.1,7851.57
11125,7849.29
11115.7,7847.9
11106.3,7847.44
10747,7847.44
Z" /> 
<path style="fill:#000000; fill-opacity:1.0; 
stroke:#000000; stroke-width:0; stroke-opacity:1; 
stroke-linecap:round; stroke-linejoin:round;fill-rule:evenodd;"
d="M 10737.6,8586.09
10728.3,8587.47
10719.2,8589.76
10710.3,8592.93
10701.8,8596.96
10693.7,8601.8
10686.1,8607.41
10679.2,8613.74
10672.8,8620.72
10667.2,8628.28
10662.4,8636.36
10658.4,8644.87
10655.2,8653.74
10652.9,8662.87
10651.5,8672.19
10651,8681.59
10651,8873.52
10651.5,8882.93
10652.9,8892.25
10655.2,8901.38
10658.4,8910.25
10662.4,8918.76
10667.2,8926.84
10672.8,8934.4
10679.2,8941.38
10686.1,8947.71
10693.7,8953.32
10701.8,8958.16
10710.3,8962.18
10719.2,8965.36
10728.3,8967.64
10737.6,8969.03
10747,8969.49
11106.3,8969.49
11115.7,8969.03
11125,8967.64
11134.1,8965.36
11143,8962.18
11151.5,8958.16
11159.6,8953.32
11167.1,8947.71
11174.1,8941.38
11180.4,8934.4
11186.1,8926.84
11190.9,8918.76
11194.9,8910.25
11198.1,8901.38
11200.4,8892.25
11201.8,8882.93
11202.2,8873.52
11202.2,8681.59
11201.8,8672.19
11200.4,8662.87
11198.1,8653.74
11194.9,8644.87
11190.9,8636.36
11186.1,8628.28
11180.4,8620.72
11174.1,8613.74
11167.1,8607.41
11159.6,8601.8
11151.5,8596.96
11143,8592.93
11134.1,8589.76
11125,8587.47
11115.7,8586.09
11106.3,8585.63
10747,8585.63
Z" /> 
</g>
<g >
</g>
<g style="fill:#000000; fill-opacity:1.0; 
stroke:#000000; stroke-width:0; stroke-opacity:1; 
stroke-linecap:round; stroke-linejoin:round;">
<path style="fill:#000000; fill-opacity:1.0; 
stroke:#000000; stroke-width:0; stroke-opacity:1; 
stroke-linecap:round; stroke-linejoin:round;fill-rule:evenodd;"
d="M 12706.1,7847.9
12696.8,7849.29
12687.7,7851.57
12678.8,7854.75
12670.3,7858.77
12662.2,7863.61
12654.6,7869.22
12647.7,7875.55
12641.3,7882.53
12635.7,7890.09
12630.9,7898.17
12626.9,7906.68
12623.7,7915.55
12621.4,7924.68
12620,7934
12619.5,7943.41
12619.5,8135.33
12620,8144.74
12621.4,8154.06
12623.7,8163.19
12626.9,8172.06
12630.9,8180.57
12635.7,8188.65
12641.3,8196.21
12647.7,8203.19
12654.6,8209.52
12662.2,8215.13
12670.3,8219.97
12678.8,8223.99
12687.7,8227.17
12696.8,8229.46
12706.1,8230.84
12715.5,8231.3
13074.8,8231.3
13084.2,8230.84
13093.5,8229.46
13102.6,8227.17
13111.5,8223.99
13120,8219.97
13128.1,8215.13
13135.6,8209.52
13142.6,8203.19
13148.9,8196.21
13154.6,8188.65
13159.4,8180.57
13163.4,8172.06
13166.6,8163.19
13168.9,8154.06
13170.3,8144.74
13170.7,8135.33
13170.7,7943.41
13170.3,7934
13168.9,7924.68
13166.6,7915.55
13163.4,7906.68
13159.4,7898.17
13154.6,7890.09
13148.9,7882.53
13142.6,7875.55
13135.6,7869.22
13128.1,7863.61
13120,7858.77
13111.5,7854.75
13102.6,7851.57
13093.5,7849.29
13084.2,7847.9
13074.8,7847.44
12715.5,7847.44
Z" /> 
<path style="fill:#000000; fill-opacity:1.0; 
stroke:#000000; stroke-width:0; stroke-opacity:1; 
stroke-linecap:round; stroke-linejoin:round;fill-rule:evenodd;"
d="M 12706.1,8586.09
12696.8,8587.47
12687.7,8589.76
12678.8,8592.93
12670.3,8596.96
12662.2,8601.8
12654.6,8607.41
12647.7,8613.74
12641.3,8620.72
12635.7,8628.28
12630.9,8636.36
12626.9,8644.87
12623.7,8653.74
12621.4,8662.87
12620,8672.19
12619.5,8681.59
12619.5,8873.52
12620,8882.93
12621.4,8892.25
12623.7,8901.38
12626.9,8910.25
12630.9,8918.76
12635.7,8926.84
12641.3,8934.4
12647.7,8941.38
12654.6,8947.71
12662.2,8953.32
12670.3,8958.16
12678.8,8962.18
12687.7,8965.36
12696.8,8967.64
12706.1,8969.03
12715.5,8969.49
13074.8,8969.49
13084.2,8969.03
13093.5,8967.64
13102.6,8965.36
13111.5,8962.18
13120,8958.16
13128.1,8953.32
13135.6,8947.71
13142.6,8941.38
13148.9,8934.4
13154.6,8926.84
13159.4,8918.76
13163.4,8910.25
13166.6,8901.38
13168.9,8892.25
13170.3,8882.93
13170.7,8873.52
13170.7,8681.59
13170.3,8672.19
13168.9,8662.87
13166.6,8653.74
13163.4,8644.87
13159.4,8636.36
13154.6,8628.28
13148.9,8620.72
13142.6,8613.74
13135.6,8607.41
13128.1,8601.8
13120,8596.96
13111.5,8592.93
13102.6,8589.76
13093.5,8587.47
13084.2,8586.09
13074.8,8585.63
12715.5,8585.63
Z" /> 
</g>
<g >
</g>
<g style="fill:#000000; fill-opacity:1.0; 
stroke:#000000; stroke-width:0; stroke-opacity:1; 
stroke-linecap:round; stroke-linejoin:round;">
<path style="fill:#000000; fill-opacity:1.0; 
stroke:#000000; stroke-width:0; stroke-opacity:1; 
stroke-linecap:round; stroke-linejoin:round;fill-rule:evenodd;"
d="M 14674.6,7847.9
14665.3,7849.29
14656.2,7851.57
14647.3,7854.75
14638.8,7858.77
14630.7,7863.61
14623.1,7869.22
14616.2,7875.55
14609.8,7882.53
14604.2,7890.09
14599.4,7898.17
14595.4,7906.68
14592.2,7915.55
14589.9,7924.68
14588.5,7934
14588.1,7943.41
14588.1,8135.33
14588.5,8144.74
14589.9,8154.06
14592.2,8163.19
14595.4,8172.06
14599.4,8180.57
14604.2,8188.65
14609.8,8196.21
14616.2,8203.19
14623.1,8209.52
14630.7,8215.13
14638.8,8219.97
14647.3,8223.99
14656.2,8227.17
14665.3,8229.46
14674.6,8230.84
14684,8231.3
15043.3,8231.3
15052.7,8230.84
15062,8229.46
15071.1,8227.17
15080,8223.99
15088.5,8219.97
15096.6,8215.13
15104.1,8209.52
15111.1,8203.19
15117.5,8196.21
15123.1,8188.65
15127.9,8180.57
15131.9,8172.06
15135.1,8163.19
15137.4,8154.06
15138.8,8144.74
15139.2,8135.33
15139.2,7943.41
15138.8,7934
15137.4,7924.68
15135.1,7915.55
15131.9,7906.68
15127.9,7898.17
15123.1,7890.09
15117.5,7882.53
15111.1,7875.55
15104.1,7869.22
15096.6,7863.61
15088.5,7858.77
15080,7854.75
15071.1,7851.57
15062,7849.29
15052.7,7847.9
15043.3,7847.44
14684,7847.44
Z" /> 
<path style="fill:#000000; fill-opacity:1.0; 
stroke:#000000; stroke-width:0; stroke-opacity:1; 
stroke-linecap:round; stroke-linejoin:round;fill-rule:evenodd;"
d="M 14674.6,8586.09
14665.3,8587.47
14656.2,8589.76
14647.3,8592.93
14638.8,8596.96
14630.7,8601.8
14623.1,8607.41
14616.2,8613.74
14609.8,8620.72
14604.2,8628.28
14599.4,8636.36
14595.4,8644.87
14592.2,8653.74
14589.9,8662.87
14588.5,8672.19
14588.1,8681.59
14588.1,8873.52
14588.5,8882.93
14589.9,8892.25
14592.2,8901.38
14595.4,8910.25
14599.4,8918.76
14604.2,8926.84
14609.8,8934.4
14616.2,8941.38
14623.1,8947.71
14630.7,8953.32
14638.8,8958.16
14647.3,8962.18
14656.2,8965.36
14665.3,8967.64
14674.6,8969.03
14684,8969.49
15043.3,8969.49
15052.7,8969.03
15062,8967.64
15071.1,8965.36
15080,8962.18
15088.5,8958.16
15096.6,8953.32
15104.1,8947.71
15111.1,8941.38
15117.5,8934.4
15123.1,8926.84
15127.9,8918.76
15131.9,8910.25
15135.1,8901.38
15137.4,8892.25
15138.8,8882.93
15139.2,8873.52
15139.2,8681.59
15138.8,8672.19
15137.4,8662.87
15135.1,8653.74
15131.9,8644.87
15127.9,8636.36
15123.1,8628.28
15117.5,8620.72
15111.1,8613.74
15104.1,8607.41
15096.6,8601.8
15088.5,8596.96
15080,8592.93
15071.1,8589.76
15062,8587.47
15052.7,8586.09
15043.3,8585.63
14684,8585.63
Z" /> 
</g>
<g >
</g>
<g style="fill:#000000; fill-opacity:1.0; 
stroke:#000000; stroke-width:0; stroke-opacity:1; 
stroke-linecap:round; stroke-linejoin:round;">
<path style="fill:#000000; fill-opacity:1.0; 
stroke:#000000; stroke-width:0; stroke-opacity:1; 
stroke-linecap:round; stroke-linejoin:round;fill-rule:evenodd;"
d="M 16643.1,7847.9
16633.8,7849.29
16624.7,7851.57
16615.8,7854.75
16607.3,7858.77
16599.2,7863.61
16591.6,7869.22
16584.7,7875.55
16578.3,7882.53
16572.7,7890.09
16567.9,7898.17
16563.9,7906.68
16560.7,7915.55
16558.4,7924.68
16557,7934
16556.6,7943.41
16556.6,8135.33
16557,8144.74
16558.4,8154.06
16560.7,8163.19
16563.9,8172.06
16567.9,8180.57
16572.7,8188.65
16578.3,8196.21
16584.7,8203.19
16591.6,8209.52
16599.2,8215.13
16607.3,8219.97
16615.8,8223.99
16624.7,8227.17
16633.8,8229.46
16643.1,8230.84
16652.5,8231.3
17011.8,8231.3
17021.2,8230.84
17030.5,8229.46
17039.6,8227.17
17048.5,8223.99
17057,8219.97
17065.1,8215.13
17072.7,8209.52
17079.6,8203.19
17086,8196.21
17091.6,8188.65
17096.4,8180.57
17100.4,8172.06
17103.6,8163.19
17105.9,8154.06
17107.3,8144.74
17107.7,8135.33
17107.7,7943.41
17107.3,7934
17105.9,7924.68
17103.6,7915.55
17100.4,7906.68
17096.4,7898.17
17091.6,7890.09
17086,7882.53
17079.6,7875.55
17072.7,7869.22
17065.1,7863.61
17057,7858.77
17048.5,7854.75
17039.6,7851.57
17030.5,7849.29
17021.2,7847.9
17011.8,7847.44
16652.5,7847.44
Z" /> 
<path style="fill:#000000; fill-opacity:1.0; 
stroke:#000000; stroke-width:0; stroke-opacity:1; 
stroke-linecap:round; stroke-linejoin:round;fill-rule:evenodd;"
d="M 16643.1,8586.09
16633.8,8587.47
16624.7,8589.76
16615.8,8592.93
16607.3,8596.96
16599.2,8601.8
16591.6,8607.41
16584.7,8613.74
16578.3,8620.72
16572.7,8628.28
16567.9,8636.36
16563.9,8644.87
16560.7,8653.74
16558.4,8662.87
16557,8672.19
16556.6,8681.59
16556.6,8873.52
16557,8882.93
16558.4,8892.25
16560.7,8901.38
16563.9,8910.25
16567.9,8918.76
16572.7,8926.84
16578.3,8934.4
16584.7,8941.38
16591.6,8947.71
16599.2,8953.32
16607.3,8958.16
16615.8,8962.18
16624.7,8965.36
16633.8,8967.64
16643.1,8969.03
16652.5,8969.49
17011.8,8969.49
17021.2,8969.03
17030.5,8967.64
17039.6,8965.36
17048.5,8962.18
17057,8958.16
17065.1,8953.32
17072.7,8947.71
17079.6,8941.38
17086,8934.4
17091.6,8926.84
17096.4,8918.76
17100.4,8910.25
17103.6,8901.38
17105.9,8892.25
17107.3,8882.93
17107.7,8873.52
17107.7,8681.59
17107.3,8672.19
17105.9,8662.87
17103.6,8653.74
17100.4,8644.87
17096.4,8636.36
17091.6,8628.28
17086,8620.72
17079.6,8613.74
17072.7,8607.41
17065.1,8601.8
17057,8596.96
17048.5,8592.93
17039.6,8589.76
17030.5,8587.47
17021.2,8586.09
17011.8,8585.63
16652.5,8585.63
Z" /> 
</g>
<g >
</g>
<g style="fill:#000000; fill-opacity:1.0; 
stroke:#000000; stroke-width:0; stroke-opacity:1; 
stroke-linecap:round; stroke-linejoin:round;">
<path style="fill:#000000; fill-opacity:1.0; 
stroke:#000000; stroke-width:0; stroke-opacity:1; 
stroke-linecap:round; stroke-linejoin:round;fill-rule:evenodd;"
d="M 18611.6,7847.9
18602.3,7849.29
18593.2,7851.57
18584.3,7854.75
18575.8,7858.77
18567.7,7863.61
18560.1,7869.22
18553.2,7875.55
18546.8,7882.53
18541.2,7890.09
18536.4,7898.17
18532.4,7906.68
18529.2,7915.55
18526.9,7924.68
18525.5,7934
18525.1,7943.41
18525.1,8135.33
18525.5,8144.74
18526.9,8154.06
18529.2,8163.19
18532.4,8172.06
18536.4,8180.57
18541.2,8188.65
18546.8,8196.21
18553.2,8203.19
18560.1,8209.52
18567.7,8215.13
18575.8,8219.97
18584.3,8223.99
18593.2,8227.17
18602.3,8229.46
18611.6,8230.84
18621,8231.3
18980.3,8231.3
18989.7,8230.84
18999,8229.46
19008.1,8227.17
19017,8223.99
19025.5,8219.97
19033.6,8215.13
19041.2,8209.52
19048.1,8203.19
19054.5,8196.21
19060.1,8188.65
19064.9,8180.57
19068.9,8172.06
19072.1,8163.19
19074.4,8154.06
19075.8,8144.74
19076.2,8135.33
19076.2,7943.41
19075.8,7934
19074.4,7924.68
19072.1,7915.55
19068.9,7906.68
19064.9,7898.17
19060.1,7890.09
19054.5,7882.53
19048.1,7875.55
19041.2,7869.22
19033.6,7863.61
19025.5,7858.77
19017,7854.75
19008.1,7851.57
18999,7849.29
18989.7,7847.9
18980.3,7847.44
18621,7847.44
Z" /> 
<path style="fill:#000000; fill-opacity:1.0; 
stroke:#000000; stroke-width:0; stroke-opacity:1; 
stroke-linecap:round; stroke-linejoin:round;fill-rule:evenodd;"
d="M 18611.6,8586.09
18602.3,8587.47
18593.2,8589.76
18584.3,8592.93
18575.8,8596.96
18567.7,8601.8
18560.1,8607.41
18553.2,8613.74
18546.8,8620.72
18541.2,8628.28
18536.4,8636.36
18532.4,8644.87
18529.2,8653.74
18526.9,8662.87
18525.5,8672.19
18525.1,8681.59
18525.1,8873.52
18525.5,8882.93
18526.9,8892.25
18529.2,8901.38
18532.4,8910.25
18536.4,8918.76
18541.2,8926.84
18546.8,8934.4
18553.2,8941.38
18560.1,8947.71
18567.7,8953.32
18575.8,8958.16
18584.3,8962.18
18593.2,8965.36
18602.3,8967.64
18611.6,8969.03
18621,8969.49
18980.3,8969.49
18989.7,8969.03
18999,8967.64
19008.1,8965.36
19017,8962.18
19025.5,8958.16
19033.6,8953.32
19041.2,8947.71
19048.1,8941.38
19054.5,8934.4
19060.1,8926.84
19064.9,8918.76
19068.9,8910.25
19072.1,8901.38
19074.4,8892.25
19075.8,8882.93
19076.2,8873.52
19076.2,8681.59
19075.8,8672.19
19074.4,8662.87
19072.1,8653.74
19068.9,8644.87
19064.9,8636.36
19060.1,8628.28
19054.5,8620.72
19048.1,8613.74
19041.2,8607.41
19033.6,8601.8
19025.5,8596.96
19017,8592.93
19008.1,8589.76
18999,8587.47
18989.7,8586.09
18980.3,8585.63
18621,8585.63
Z" /> 
</g>
<g >
</g>
<g style="fill:#000000; fill-opacity:1.0; 
stroke:#000000; stroke-width:0; stroke-opacity:1; 
stroke-linecap:round; stroke-linejoin:round;">
<path style="fill:#000000; fill-opacity:1.0; 
stroke:#000000; stroke-width:0; stroke-opacity:1; 
stroke-linecap:round; stroke-linejoin:round;fill-rule:evenodd;"
d="M 20580.1,7847.9
20570.8,7849.29
20561.7,7851.57
20552.8,7854.75
20544.3,7858.77
20536.2,7863.61
20528.7,7869.22
20521.7,7875.55
20515.3,7882.53
20509.7,7890.09
20504.9,7898.17
20500.9,7906.68
20497.7,7915.55
20495.4,7924.68
20494,7934
20493.6,7943.41
20493.6,8135.33
20494,8144.74
20495.4,8154.06
20497.7,8163.19
20500.9,8172.06
20504.9,8180.57
20509.7,8188.65
20515.3,8196.21
20521.7,8203.19
20528.7,8209.52
20536.2,8215.13
20544.3,8219.97
20552.8,8223.99
20561.7,8227.17
20570.8,8229.46
20580.1,8230.84
20589.5,8231.3
20948.8,8231.3
20958.2,8230.84
20967.5,8229.46
20976.6,8227.17
20985.5,8223.99
20994,8219.97
21002.1,8215.13
21009.7,8209.52
21016.6,8203.19
21023,8196.21
21028.6,8188.65
21033.4,8180.57
21037.4,8172.06
21040.6,8163.19
21042.9,8154.06
21044.3,8144.74
21044.7,8135.33
21044.7,7943.41
21044.3,7934
21042.9,7924.68
21040.6,7915.55
21037.4,7906.68
21033.4,7898.17
21028.6,7890.09
21023,7882.53
21016.6,7875.55
21009.7,7869.22
21002.1,7863.61
20994,7858.77
20985.5,7854.75
20976.6,7851.57
20967.5,7849.29
20958.2,7847.9
20948.8,7847.44
20589.5,7847.44
Z" /> 
<path style="fill:#000000; fill-opacity:1.0; 
stroke:#000000; stroke-width:0; stroke-opacity:1; 
stroke-linecap:round; stroke-linejoin:round;fill-rule:evenodd;"
d="M 20580.1,8586.09
20570.8,8587.47
20561.7,8589.76
20552.8,8592.93
20544.3,8596.96
20536.2,8601.8
20528.7,8607.41
20521.7,8613.74
20515.3,8620.72
20509.7,8628.28
20504.9,8636.36
20500.9,8644.87
20497.7,8653.74
20495.4,8662.87
20494,8672.19
20493.6,8681.59
20493.6,8873.52
20494,8882.93
20495.4,8892.25
20497.7,8901.38
20500.9,8910.25
20504.9,8918.76
20509.7,8926.84
20515.3,8934.4
20521.7,8941.38
20528.7,8947.71
20536.2,8953.32
20544.3,8958.16
20552.8,8962.18
20561.7,8965.36
20570.8,8967.64
20580.1,8969.03
20589.5,8969.49
20948.8,8969.49
20958.2,8969.03
20967.5,8967.64
20976.6,8965.36
20985.5,8962.18
20994,8958.16
21002.1,8953.32
21009.7,8947.71
21016.6,8941.38
21023,8934.4
21028.6,8926.84
21033.4,8918.76
21037.4,8910.25
21040.6,8901.38
21042.9,8892.25
21044.3,8882.93
21044.7,8873.52
21044.7,8681.59
21044.3,8672.19
21042.9,8662.87
21040.6,8653.74
21037.4,8644.87
21033.4,8636.36
21028.6,8628.28
21023,8620.72
21016.6,8613.74
21009.7,8607.41
21002.1,8601.8
20994,8596.96
20985.5,8592.93
20976.6,8589.76
20967.5,8587.47
20958.2,8586.09
20948.8,8585.63
20589.5,8585.63
Z" /> 
</g>
<g >
</g>
<g style="fill:#000000; fill-opacity:1.0; 
stroke:#000000; stroke-width:0; stroke-opacity:1; 
stroke-linecap:round; stroke-linejoin:round;">
<path style="fill:#000000; fill-opacity:1.0; 
stroke:#000000; stroke-width:0; stroke-opacity:1; 
stroke-linecap:round; stroke-linejoin:round;fill-rule:evenodd;"
d="M 22548.6,7847.9
22539.3,7849.29
22530.2,7851.57
22521.3,7854.75
22512.8,7858.77
22504.7,7863.61
22497.2,7869.22
22490.2,7875.55
22483.9,7882.53
22478.2,7890.09
22473.4,7898.17
22469.4,7906.68
22466.2,7915.55
22463.9,7924.68
22462.5,7934
22462.1,7943.41
22462.1,8135.33
22462.5,8144.74
22463.9,8154.06
22466.2,8163.19
22469.4,8172.06
22473.4,8180.57
22478.2,8188.65
22483.9,8196.21
22490.2,8203.19
22497.2,8209.52
22504.7,8215.13
22512.8,8219.97
22521.3,8223.99
22530.2,8227.17
22539.3,8229.46
22548.6,8230.84
22558,8231.3
22917.3,8231.3
22926.7,8230.84
22936,8229.46
22945.1,8227.17
22954,8223.99
22962.5,8219.97
22970.6,8215.13
22978.2,8209.52
22985.1,8203.19
22991.5,8196.21
22997.1,8188.65
23001.9,8180.57
23005.9,8172.06
23009.1,8163.19
23011.4,8154.06
23012.8,8144.74
23013.3,8135.33
23013.3,7943.41
23012.8,7934
23011.4,7924.68
23009.1,7915.55
23005.9,7906.68
23001.9,7898.17
22997.1,7890.09
22991.5,7882.53
22985.1,7875.55
22978.2,7869.22
22970.6,7863.61
22962.5,7858.77
22954,7854.75
22945.1,7851.57
22936,7849.29
22926.7,7847.9
22917.3,7847.44
22558,7847.44
Z" /> 
<path style="fill:#000000; fill-opacity:1.0; 
stroke:#000000; stroke-width:0; stroke-opacity:1; 
stroke-linecap:round; stroke-linejoin:round;fill-rule:evenodd;"
d="M 22548.6,8586.09
22539.3,8587.47
22530.2,8589.76
22521.3,8592.93
22512.8,8596.96
22504.7,8601.8
22497.2,8607.41
22490.2,8613.74
22483.9,8620.72
22478.2,8628.28
22473.4,8636.36
22469.4,8644.87
22466.2,8653.74
22463.9,8662.87
22462.5,8672.19
22462.1,8681.59
22462.1,8873.52
22462.5,8882.93
22463.9,8892.25
22466.2,8901.38
22469.4,8910.25
22473.4,8918.76
22478.2,8926.84
22483.9,8934.4
22490.2,8941.38
22497.2,8947.71
22504.7,8953.32
22512.8,8958.16
22521.3,8962.18
22530.2,8965.36
22539.3,8967.64
22548.6,8969.03
22558,8969.49
22917.3,8969.49
22926.7,8969.03
22936,8967.64
22945.1,8965.36
22954,8962.18
22962.5,8958.16
22970.6,8953.32
22978.2,8947.71
22985.1,8941.38
22991.5,8934.4
22997.1,8926.84
23001.9,8918.76
23005.9,8910.25
23009.1,8901.38
23011.4,8892.25
23012.8,8882.93
23013.3,8873.52
23013.3,8681.59
23012.8,8672.19
23011.4,8662.87
23009.1,8653.74
23005.9,8644.87
23001.9,8636.36
22997.1,8628.28
22991.5,8620.72
22985.1,8613.74
22978.2,8607.41
22970.6,8601.8
22962.5,8596.96
22954,8592.93
22945.1,8589.76
22936,8587.47
22926.7,8586.09
22917.3,8585.63
22558,8585.63
Z" /> 
</g>
<g >
</g>
<g style="fill:#000000; fill-opacity:1.0; 
stroke:#000000; stroke-width:0; stroke-opacity:1; 
stroke-linecap:round; stroke-linejoin:round;">
<path style="fill:#000000; fill-opacity:1.0; 
stroke:#000000; stroke-width:0; stroke-opacity:1; 
stroke-linecap:round; stroke-linejoin:round;fill-rule:evenodd;"
d="M 24517.1,7847.9
24507.8,7849.29
24498.7,7851.57
24489.8,7854.75
24481.3,7858.77
24473.2,7863.61
24465.7,7869.22
24458.7,7875.55
24452.4,7882.53
24446.7,7890.09
24441.9,7898.17
24437.9,7906.68
24434.7,7915.55
24432.4,7924.68
24431,7934
24430.6,7943.41
24430.6,8135.33
24431,8144.74
24432.4,8154.06
24434.7,8163.19
24437.9,8172.06
24441.9,8180.57
24446.7,8188.65
24452.4,8196.21
24458.7,8203.19
24465.7,8209.52
24473.2,8215.13
24481.3,8219.97
24489.8,8223.99
24498.7,8227.17
24507.8,8229.46
24517.1,8230.84
24526.5,8231.3
24885.8,8231.3
24895.2,8230.84
24904.5,8229.46
24913.6,8227.17
24922.5,8223.99
24931,8219.97
24939.1,8215.13
24946.7,8209.52
24953.6,8203.19
24960,8196.21
24965.6,8188.65
24970.4,8180.57
24974.5,8172.06
24977.6,8163.19
24979.9,8154.06
24981.3,8144.74
24981.8,8135.33
24981.8,7943.41
24981.3,7934
24979.9,7924.68
24977.6,7915.55
24974.5,7906.68
24970.4,7898.17
24965.6,7890.09
24960,7882.53
24953.6,7875.55
24946.7,7869.22
24939.1,7863.61
24931,7858.77
24922.5,7854.75
24913.6,7851.57
24904.5,7849.29
24895.2,7847.9
24885.8,7847.44
24526.5,7847.44
Z" /> 
<path style="fill:#000000; fill-opacity:1.0; 
stroke:#000000; stroke-width:0; stroke-opacity:1; 
stroke-linecap:round; stroke-linejoin:round;fill-rule:evenodd;"
d="M 24517.1,8586.09
24507.8,8587.47
24498.7,8589.76
24489.8,8592.93
24481.3,8596.96
24473.2,8601.8
24465.7,8607.41
24458.7,8613.74
24452.4,8620.72
24446.7,8628.28
24441.9,8636.36
24437.9,8644.87
24434.7,8653.74
24432.4,8662.87
24431,8672.19
24430.6,8681.59
24430.6,8873.52
24431,8882.93
24432.4,8892.25
24434.7,8901.38
24437.9,8910.25
24441.9,8918.76
24446.7,8926.84
24452.4,8934.4
24458.7,8941.38
24465.7,8947.71
24473.2,8953.32
24481.3,8958.16
24489.8,8962.18
24498.7,8965.36
24507.8,8967.64
24517.1,8969.03
24526.5,8969.49
24885.8,8969.49
24895.2,8969.03
24904.5,8967.64
24913.6,8965.36
24922.5,8962.18
24931,8958.16
24939.1,8953.32
24946.7,8947.71
24953.6,8941.38
24960,8934.4
24965.6,8926.84
24970.4,8918.76
24974.5,8910.25
24977.6,8901.38
24979.9,8892.25
24981.3,8882.93
24981.8,8873.52
24981.8,8681.59
24981.3,8672.19
24979.9,8662.87
24977.6,8653.74
24974.5,8644.87
24970.4,8636.36
24965.6,8628.28
24960,8620.72
24953.6,8613.74
24946.7,8607.41
24939.1,8601.8
24931,8596.96
24922.5,8592.93
24913.6,8589.76
24904.5,8587.47
24895.2,8586.09
24885.8,8585.63
24526.5,8585.63
Z" /> 
</g>
<g >
</g>
<g style="fill:#000000; fill-opacity:1.0; 
stroke:#000000; stroke-width:0; stroke-opacity:1; 
stroke-linecap:round; stroke-linejoin:round;">
<path style="fill:#000000; fill-opacity:1.0; 
stroke:#000000; stroke-width:0; stroke-opacity:1; 
stroke-linecap:round; stroke-linejoin:round;fill-rule:evenodd;"
d="M 26485.6,7847.9
26476.3,7849.29
26467.2,7851.57
26458.3,7854.75
26449.8,7858.77
26441.7,7863.61
26434.2,7869.22
26427.2,7875.55
26420.9,7882.53
26415.3,7890.09
26410.4,7898.17
26406.4,7906.68
26403.2,7915.55
26400.9,7924.68
26399.5,7934
26399.1,7943.41
26399.1,8135.33
26399.5,8144.74
26400.9,8154.06
26403.2,8163.19
26406.4,8172.06
26410.4,8180.57
26415.3,8188.65
26420.9,8196.21
26427.2,8203.19
26434.2,8209.52
26441.7,8215.13
26449.8,8219.97
26458.3,8223.99
26467.2,8227.17
26476.3,8229.46
26485.6,8230.84
26495,8231.3
26854.3,8231.3
26863.7,8230.84
26873,8229.46
26882.2,8227.17
26891,8223.99
26899.5,8219.97
26907.6,8215.13
26915.2,8209.52
26922.2,8203.19
26928.5,8196.21
26934.1,8188.65
26938.9,8180.57
26943,8172.06
26946.1,8163.19
26948.4,8154.06
26949.8,8144.74
26950.3,8135.33
26950.3,7943.41
26949.8,7934
26948.4,7924.68
26946.1,7915.55
26943,7906.68
26938.9,7898.17
26934.1,7890.09
26928.5,7882.53
26922.2,7875.55
26915.2,7869.22
26907.6,7863.61
26899.5,7858.77
26891,7854.75
26882.2,7851.57
26873,7849.29
26863.7,7847.9
26854.3,7847.44
26495,7847.44
Z" /> 
<path style="fill:#000000; fill-opacity:1.0; 
stroke:#000000; stroke-width:0; stroke-opacity:1; 
stroke-linecap:round; stroke-linejoin:round;fill-rule:evenodd;"
d="M 26485.6,8586.09
26476.3,8587.47
26467.2,8589.76
26458.3,8592.93
26449.8,8596.96
26441.7,8601.8
26434.2,8607.41
26427.2,8613.74
26420.9,8620.72
26415.3,8628.28
26410.4,8636.36
26406.4,8644.87
26403.2,8653.74
26400.9,8662.87
26399.5,8672.19
26399.1,8681.59
26399.1,8873.52
26399.5,8882.93
26400.9,8892.25
26403.2,8901.38
26406.4,8910.25
26410.4,8918.76
26415.3,8926.84
26420.9,8934.4
26427.2,8941.38
26434.2,8947.71
26441.7,8953.32
26449.8,8958.16
26458.3,8962.18
26467.2,8965.36
26476.3,8967.64
26485.6,8969.03
26495,8969.49
26854.3,8969.49
26863.7,8969.03
26873,8967.64
26882.2,8965.36
26891,8962.18
26899.5,8958.16
26907.6,8953.32
26915.2,8947.71
26922.2,8941.38
26928.5,8934.4
26934.1,8926.84
26938.9,8918.76
26943,8910.25
26946.1,8901.38
26948.4,8892.25
26949.8,8882.93
26950.3,8873.52
26950.3,8681.59
26949.8,8672.19
26948.4,8662.87
26946.1,8653.74
26943,8644.87
26938.9,8636.36
26934.1,8628.28
26928.5,8620.72
26922.2,8613.74
26915.2,8607.41
26907.6,8601.8
26899.5,8596.96
26891,8592.93
26882.2,8589.76
26873,8587.47
26863.7,8586.09
26854.3,8585.63
26495,8585.63
Z" /> 
</g>
<g >
</g>
<g style="fill:#000000; fill-opacity:1.0; 
stroke:#000000; stroke-width:0; stroke-opacity:1; 
stroke-linecap:round; stroke-linejoin:round;">
<path style="fill:#000000; fill-opacity:1.0; 
stroke:#000000; stroke-width:0; stroke-opacity:1; 
stroke-linecap:round; stroke-linejoin:round;fill-rule:evenodd;"
d="M 28454.1,7847.9
28444.8,7849.29
28435.7,7851.57
28426.8,7854.75
28418.3,7858.77
28410.2,7863.61
28402.7,7869.22
28395.7,7875.55
28389.4,7882.53
28383.8,7890.09
28378.9,7898.17
28374.9,7906.68
28371.7,7915.55
28369.4,7924.68
28368,7934
28367.6,7943.41
28367.6,8135.33
28368,8144.74
28369.4,8154.06
28371.7,8163.19
28374.9,8172.06
28378.9,8180.57
28383.8,8188.65
28389.4,8196.21
28395.7,8203.19
28402.7,8209.52
28410.2,8215.13
28418.3,8219.97
28426.8,8223.99
28435.7,8227.17
28444.8,8229.46
28454.1,8230.84
28463.5,8231.3
28822.8,8231.3
28832.2,8230.84
28841.5,8229.46
28850.7,8227.17
28859.5,8223.99
28868,8219.97
28876.1,8215.13
28883.7,8209.52
28890.7,8203.19
28897,8196.21
28902.6,8188.65
28907.4,8180.57
28911.5,8172.06
28914.6,8163.19
28916.9,8154.06
28918.3,8144.74
28918.8,8135.33
28918.8,7943.41
28918.3,7934
28916.9,7924.68
28914.6,7915.55
28911.5,7906.68
28907.4,7898.17
28902.6,7890.09
28897,7882.53
28890.7,7875.55
28883.7,7869.22
28876.1,7863.61
28868,7858.77
28859.5,7854.75
28850.7,7851.57
28841.5,7849.29
28832.2,7847.9
28822.8,7847.44
28463.5,7847.44
Z" /> 
<path style="fill:#000000; fill-opacity:1.0; 
stroke:#000000; stroke-width:0; stroke-opacity:1; 
stroke-linecap:round; stroke-linejoin:round;fill-rule:evenodd;"
d="M 28454.1,8586.09
28444.8,8587.47
28435.7,8589.76
28426.8,8592.93
28418.3,8596.96
28410.2,8601.8
28402.7,8607.41
28395.7,8613.74
28389.4,8620.72
28383.8,8628.28
28378.9,8636.36
28374.9,8644.87
28371.7,8653.74
28369.4,8662.87
28368,8672.19
28367.6,8681.59
28367.6,8873.52
28368,8882.93
28369.4,8892.25
28371.7,8901.38
28374.9,8910.25
28378.9,8918.76
28383.8,8926.84
28389.4,8934.4
28395.7,8941.38
28402.7,8947.71
28410.2,8953.32
28418.3,8958.16
28426.8,8962.18
28435.7,8965.36
28444.8,8967.64
28454.1,8969.03
28463.5,8969.49
28822.8,8969.49
28832.2,8969.03
28841.5,8967.64
28850.7,8965.36
28859.5,8962.18
28868,8958.16
28876.1,8953.32
28883.7,8947.71
28890.7,8941.38
28897,8934.4
28902.6,8926.84
28907.4,8918.76
28911.5,8910.25
28914.6,8901.38
28916.9,8892.25
28918.3,8882.93
28918.8,8873.52
28918.8,8681.59
28918.3,8672.19
28916.9,8662.87
28914.6,8653.74
28911.5,8644.87
28907.4,8636.36
28902.6,8628.28
28897,8620.72
28890.7,8613.74
28883.7,8607.41
28876.1,8601.8
28868,8596.96
28859.5,8592.93
28850.7,8589.76
28841.5,8587.47
28832.2,8586.09
28822.8,8585.63
28463.5,8585.63
Z" /> 
</g>
<g >
</g>
<g style="fill:#000000; fill-opacity:1.0; 
stroke:#000000; stroke-width:0; stroke-opacity:1; 
stroke-linecap:round; stroke-linejoin:round;">
<path style="fill:#000000; fill-opacity:1.0; 
stroke:#000000; stroke-width:0; stroke-opacity:1; 
stroke-linecap:round; stroke-linejoin:round;fill-rule:evenodd;"
d="M 10737.6,5879.4
10728.3,5880.78
10719.2,5883.07
10710.3,5886.24
10701.8,5890.27
10693.7,5895.11
10686.1,5900.72
10679.2,5907.04
10672.8,5914.02
10667.2,5921.59
10662.4,5929.66
10658.4,5938.18
10655.2,5947.04
10652.9,5956.18
10651.5,5965.5
10651,5974.9
10651,6166.83
10651.5,6176.24
10652.9,6185.55
10655.2,6194.69
10658.4,6203.55
10662.4,6212.07
10667.2,6220.15
10672.8,6227.71
10679.2,6234.69
10686.1,6241.01
10693.7,6246.62
10701.8,6251.46
10710.3,6255.49
10719.2,6258.66
10728.3,6260.95
10737.6,6262.33
10747,6262.8
11106.3,6262.8
11115.7,6262.33
11125,6260.95
11134.1,6258.66
11143,6255.49
11151.5,6251.46
11159.6,6246.62
11167.1,6241.01
11174.1,6234.69
11180.4,6227.71
11186.1,6220.15
11190.9,6212.07
11194.9,6203.55
11198.1,6194.69
11200.4,6185.55
11201.8,6176.24
11202.2,6166.83
11202.2,5974.9
11201.8,5965.5
11200.4,5956.18
11198.1,5947.04
11194.9,5938.18
11190.9,5929.66
11186.1,5921.59
11180.4,5914.02
11174.1,5907.04
11167.1,5900.72
11159.6,5895.11
11151.5,5890.27
11143,5886.24
11134.1,5883.07
11125,5880.78
11115.7,5879.4
11106.3,5878.94
10747,5878.94
Z" /> 
<path style="fill:#000000; fill-opacity:1.0; 
stroke:#000000; stroke-width:0; stroke-opacity:1; 
stroke-linecap:round; stroke-linejoin:round;fill-rule:evenodd;"
d="M 10737.6,6617.59
10728.3,6618.97
10719.2,6621.26
10710.3,6624.43
10701.8,6628.46
10693.7,6633.3
10686.1,6638.91
10679.2,6645.23
10672.8,6652.21
10667.2,6659.78
10662.4,6667.85
10658.4,6676.37
10655.2,6685.23
10652.9,6694.37
10651.5,6703.68
10651,6713.09
10651,6905.02
10651.5,6914.43
10652.9,6923.74
10655.2,6932.88
10658.4,6941.74
10662.4,6950.26
10667.2,6958.33
10672.8,6965.9
10679.2,6972.88
10686.1,6979.2
10693.7,6984.81
10701.8,6989.65
10710.3,6993.68
10719.2,6996.85
10728.3,6999.14
10737.6,7000.52
10747,7000.98
11106.3,7000.98
11115.7,7000.52
11125,6999.14
11134.1,6996.85
11143,6993.68
11151.5,6989.65
11159.6,6984.81
11167.1,6979.2
11174.1,6972.88
11180.4,6965.9
11186.1,6958.33
11190.9,6950.26
11194.9,6941.74
11198.1,6932.88
11200.4,6923.74
11201.8,6914.43
11202.2,6905.02
11202.2,6713.09
11201.8,6703.68
11200.4,6694.37
11198.1,6685.23
11194.9,6676.37
11190.9,6667.85
11186.1,6659.78
11180.4,6652.21
11174.1,6645.23
11167.1,6638.91
11159.6,6633.3
11151.5,6628.46
11143,6624.43
11134.1,6621.26
11125,6618.97
11115.7,6617.59
11106.3,6617.13
10747,6617.13
Z" /> 
</g>
<g >
</g>
<g style="fill:#000000; fill-opacity:1.0; 
stroke:#000000; stroke-width:0; stroke-opacity:1; 
stroke-linecap:round; stroke-linejoin:round;">
<path style="fill:#000000; fill-opacity:1.0; 
stroke:#000000; stroke-width:0; stroke-opacity:1; 
stroke-linecap:round; stroke-linejoin:round;fill-rule:evenodd;"
d="M 12706.1,5879.4
12696.8,5880.78
12687.7,5883.07
12678.8,5886.24
12670.3,5890.27
12662.2,5895.11
12654.6,5900.72
12647.7,5907.04
12641.3,5914.02
12635.7,5921.59
12630.9,5929.66
12626.9,5938.18
12623.7,5947.04
12621.4,5956.18
12620,5965.5
12619.5,5974.9
12619.5,6166.83
12620,6176.24
12621.4,6185.55
12623.7,6194.69
12626.9,6203.55
12630.9,6212.07
12635.7,6220.15
12641.3,6227.71
12647.7,6234.69
12654.6,6241.01
12662.2,6246.62
12670.3,6251.46
12678.8,6255.49
12687.7,6258.66
12696.8,6260.95
12706.1,6262.33
12715.5,6262.8
13074.8,6262.8
13084.2,6262.33
13093.5,6260.95
13102.6,6258.66
13111.5,6255.49
13120,6251.46
13128.1,6246.62
13135.6,6241.01
13142.6,6234.69
13148.9,6227.71
13154.6,6220.15
13159.4,6212.07
13163.4,6203.55
13166.6,6194.69
13168.9,6185.55
13170.3,6176.24
13170.7,6166.83
13170.7,5974.9
13170.3,5965.5
13168.9,5956.18
13166.6,5947.04
13163.4,5938.18
13159.4,5929.66
13154.6,5921.59
13148.9,5914.02
13142.6,5907.04
13135.6,5900.72
13128.1,5895.11
13120,5890.27
13111.5,5886.24
13102.6,5883.07
13093.5,5880.78
13084.2,5879.4
13074.8,5878.94
12715.5,5878.94
Z" /> 
<path style="fill:#000000; fill-opacity:1.0; 
stroke:#000000; stroke-width:0; stroke-opacity:1; 
stroke-linecap:round; stroke-linejoin:round;fill-rule:evenodd;"
d="M 12706.1,6617.59
12696.8,6618.97
12687.7,6621.26
12678.8,6624.43
12670.3,6628.46
12662.2,6633.3
12654.6,6638.91
12647.7,6645.23
12641.3,6652.21
12635.7,6659.78
12630.9,6667.85
12626.9,6676.37
12623.7,6685.23
12621.4,6694.37
12620,6703.68
12619.5,6713.09
12619.5,6905.02
12620,6914.43
12621.4,6923.74
12623.7,6932.88
12626.9,6941.74
12630.9,6950.26
12635.7,6958.33
12641.3,6965.9
12647.7,6972.88
12654.6,6979.2
12662.2,6984.81
12670.3,6989.65
12678.8,6993.68
12687.7,6996.85
12696.8,6999.14
12706.1,7000.52
12715.5,7000.98
13074.8,7000.98
13084.2,7000.52
13093.5,6999.14
13102.6,6996.85
13111.5,6993.68
13120,6989.65
13128.1,6984.81
13135.6,6979.2
13142.6,6972.88
13148.9,6965.9
13154.6,6958.33
13159.4,6950.26
13163.4,6941.74
13166.6,6932.88
13168.9,6923.74
13170.3,6914.43
13170.7,6905.02
13170.7,6713.09
13170.3,6703.68
13168.9,6694.37
13166.6,6685.23
13163.4,6676.37
13159.4,6667.85
13154.6,6659.78
13148.9,6652.21
13142.6,6645.23
13135.6,6638.91
13128.1,6633.3
13120,6628.46
13111.5,6624.43
13102.6,6621.26
13093.5,6618.97
13084.2,6617.59
13074.8,6617.13
12715.5,6617.13
Z" /> 
</g>
<g >
</g>
<g style="fill:#000000; fill-opacity:1.0; 
stroke:#000000; stroke-width:0; stroke-opacity:1; 
stroke-linecap:round; stroke-linejoin:round;">
<path style="fill:#000000; fill-opacity:1.0; 
stroke:#000000; stroke-width:0; stroke-opacity:1; 
stroke-linecap:round; stroke-linejoin:round;fill-rule:evenodd;"
d="M 14674.6,5879.4
14665.3,5880.78
14656.2,5883.07
14647.3,5886.24
14638.8,5890.27
14630.7,5895.11
14623.1,5900.72
14616.2,5907.04
14609.8,5914.02
14604.2,5921.59
14599.4,5929.66
14595.4,5938.18
14592.2,5947.04
14589.9,5956.18
14588.5,5965.5
14588.1,5974.9
14588.1,6166.83
14588.5,6176.24
14589.9,6185.55
14592.2,6194.69
14595.4,6203.55
14599.4,6212.07
14604.2,6220.15
14609.8,6227.71
14616.2,6234.69
14623.1,6241.01
14630.7,6246.62
14638.8,6251.46
14647.3,6255.49
14656.2,6258.66
14665.3,6260.95
14674.6,6262.33
14684,6262.8
15043.3,6262.8
15052.7,6262.33
15062,6260.95
15071.1,6258.66
15080,6255.49
15088.5,6251.46
15096.6,6246.62
15104.1,6241.01
15111.1,6234.69
15117.5,6227.71
15123.1,6220.15
15127.9,6212.07
15131.9,6203.55
15135.1,6194.69
15137.4,6185.55
15138.8,6176.24
15139.2,6166.83
15139.2,5974.9
15138.8,5965.5
15137.4,5956.18
15135.1,5947.04
15131.9,5938.18
15127.9,5929.66
15123.1,5921.59
15117.5,5914.02
15111.1,5907.04
15104.1,5900.72
15096.6,5895.11
15088.5,5890.27
15080,5886.24
15071.1,5883.07
15062,5880.78
15052.7,5879.4
15043.3,5878.94
14684,5878.94
Z" /> 
<path style="fill:#000000; fill-opacity:1.0; 
stroke:#000000; stroke-width:0; stroke-opacity:1; 
stroke-linecap:round; stroke-linejoin:round;fill-rule:evenodd;"
d="M 14674.6,6617.59
14665.3,6618.97
14656.2,6621.26
14647.3,6624.43
14638.8,6628.46
14630.7,6633.3
14623.1,6638.91
14616.2,6645.23
14609.8,6652.21
14604.2,6659.78
14599.4,6667.85
14595.4,6676.37
14592.2,6685.23
14589.9,6694.37
14588.5,6703.68
14588.1,6713.09
14588.1,6905.02
14588.5,6914.43
14589.9,6923.74
14592.2,6932.88
14595.4,6941.74
14599.4,6950.26
14604.2,6958.33
14609.8,6965.9
14616.2,6972.88
14623.1,6979.2
14630.7,6984.81
14638.8,6989.65
14647.3,6993.68
14656.2,6996.85
14665.3,6999.14
14674.6,7000.52
14684,7000.98
15043.3,7000.98
15052.7,7000.52
15062,6999.14
15071.1,6996.85
15080,6993.68
15088.5,6989.65
15096.6,6984.81
15104.1,6979.2
15111.1,6972.88
15117.5,6965.9
15123.1,6958.33
15127.9,6950.26
15131.9,6941.74
15135.1,6932.88
15137.4,6923.74
15138.8,6914.43
15139.2,6905.02
15139.2,6713.09
15138.8,6703.68
15137.4,6694.37
15135.1,6685.23
15131.9,6676.37
15127.9,6667.85
15123.1,6659.78
15117.5,6652.21
15111.1,6645.23
15104.1,6638.91
15096.6,6633.3
15088.5,6628.46
15080,6624.43
15071.1,6621.26
15062,6618.97
15052.7,6617.59
15043.3,6617.13
14684,6617.13
Z" /> 
</g>
<g >
</g>
<g style="fill:#000000; fill-opacity:1.0; 
stroke:#000000; stroke-width:0; stroke-opacity:1; 
stroke-linecap:round; stroke-linejoin:round;">
<path style="fill:#000000; fill-opacity:1.0; 
stroke:#000000; stroke-width:0; stroke-opacity:1; 
stroke-linecap:round; stroke-linejoin:round;fill-rule:evenodd;"
d="M 16643.1,5879.4
16633.8,5880.78
16624.7,5883.07
16615.8,5886.24
16607.3,5890.27
16599.2,5895.11
16591.6,5900.72
16584.7,5907.04
16578.3,5914.02
16572.7,5921.59
16567.9,5929.66
16563.9,5938.18
16560.7,5947.04
16558.4,5956.18
16557,5965.5
16556.6,5974.9
16556.6,6166.83
16557,6176.24
16558.4,6185.55
16560.7,6194.69
16563.9,6203.55
16567.9,6212.07
16572.7,6220.15
16578.3,6227.71
16584.7,6234.69
16591.6,6241.01
16599.2,6246.62
16607.3,6251.46
16615.8,6255.49
16624.7,6258.66
16633.8,6260.95
16643.1,6262.33
16652.5,6262.8
17011.8,6262.8
17021.2,6262.33
17030.5,6260.95
17039.6,6258.66
17048.5,6255.49
17057,6251.46
17065.1,6246.62
17072.7,6241.01
17079.6,6234.69
17086,6227.71
17091.6,6220.15
17096.4,6212.07
17100.4,6203.55
17103.6,6194.69
17105.9,6185.55
17107.3,6176.24
17107.7,6166.83
17107.7,5974.9
17107.3,5965.5
17105.9,5956.18
17103.6,5947.04
17100.4,5938.18
17096.4,5929.66
17091.6,5921.59
17086,5914.02
17079.6,5907.04
17072.7,5900.72
17065.1,5895.11
17057,5890.27
17048.5,5886.24
17039.6,5883.07
17030.5,5880.78
17021.2,5879.4
17011.8,5878.94
16652.5,5878.94
Z" /> 
<path style="fill:#000000; fill-opacity:1.0; 
stroke:#000000; stroke-width:0; stroke-opacity:1; 
stroke-linecap:round; stroke-linejoin:round;fill-rule:evenodd;"
d="M 16643.1,6617.59
16633.8,6618.97
16624.7,6621.26
16615.8,6624.43
16607.3,6628.46
16599.2,6633.3
16591.6,6638.91
16584.7,6645.23
16578.3,6652.21
16572.7,6659.78
16567.9,6667.85
16563.9,6676.37
16560.7,6685.23
16558.4,6694.37
16557,6703.68
16556.6,6713.09
16556.6,6905.02
16557,6914.43
16558.4,6923.74
16560.7,6932.88
16563.9,6941.74
16567.9,6950.26
16572.7,6958.33
16578.3,6965.9
16584.7,6972.88
16591.6,6979.2
16599.2,6984.81
16607.3,6989.65
16615.8,6993.68
16624.7,6996.85
16633.8,6999.14
16643.1,7000.52
16652.5,7000.98
17011.8,7000.98
17021.2,7000.52
17030.5,6999.14
17039.6,6996.85
17048.5,6993.68
17057,6989.65
17065.1,6984.81
17072.7,6979.2
17079.6,6972.88
17086,6965.9
17091.6,6958.33
17096.4,6950.26
17100.4,6941.74
17103.6,6932.88
17105.9,6923.74
17107.3,6914.43
17107.7,6905.02
17107.7,6713.09
17107.3,6703.68
17105.9,6694.37
17103.6,6685.23
17100.4,6676.37
17096.4,6667.85
17091.6,6659.78
17086,6652.21
17079.6,6645.23
17072.7,6638.91
17065.1,6633.3
17057,6628.46
17048.5,6624.43
17039.6,6621.26
17030.5,6618.97
17021.2,6617.59
17011.8,6617.13
16652.5,6617.13
Z" /> 
</g>
<g >
</g>
<g style="fill:#000000; fill-opacity:1.0; 
stroke:#000000; stroke-width:0; stroke-opacity:1; 
stroke-linecap:round; stroke-linejoin:round;">
<path style="fill:#000000; fill-opacity:1.0; 
stroke:#000000; stroke-width:0; stroke-opacity:1; 
stroke-linecap:round; stroke-linejoin:round;fill-rule:evenodd;"
d="M 18611.6,5879.4
18602.3,5880.78
18593.2,5883.07
18584.3,5886.24
18575.8,5890.27
18567.7,5895.11
18560.1,5900.72
18553.2,5907.04
18546.8,5914.02
18541.2,5921.59
18536.4,5929.66
18532.4,5938.18
18529.2,5947.04
18526.9,5956.18
18525.5,5965.5
18525.1,5974.9
18525.1,6166.83
18525.5,6176.24
18526.9,6185.55
18529.2,6194.69
18532.4,6203.55
18536.4,6212.07
18541.2,6220.15
18546.8,6227.71
18553.2,6234.69
18560.1,6241.01
18567.7,6246.62
18575.8,6251.46
18584.3,6255.49
18593.2,6258.66
18602.3,6260.95
18611.6,6262.33
18621,6262.8
18980.3,6262.8
18989.7,6262.33
18999,6260.95
19008.1,6258.66
19017,6255.49
19025.5,6251.46
19033.6,6246.62
19041.2,6241.01
19048.1,6234.69
19054.5,6227.71
19060.1,6220.15
19064.9,6212.07
19068.9,6203.55
19072.1,6194.69
19074.4,6185.55
19075.8,6176.24
19076.2,6166.83
19076.2,5974.9
19075.8,5965.5
19074.4,5956.18
19072.1,5947.04
19068.9,5938.18
19064.9,5929.66
19060.1,5921.59
19054.5,5914.02
19048.1,5907.04
19041.2,5900.72
19033.6,5895.11
19025.5,5890.27
19017,5886.24
19008.1,5883.07
18999,5880.78
18989.7,5879.4
18980.3,5878.94
18621,5878.94
Z" /> 
<path style="fill:#000000; fill-opacity:1.0; 
stroke:#000000; stroke-width:0; stroke-opacity:1; 
stroke-linecap:round; stroke-linejoin:round;fill-rule:evenodd;"
d="M 18611.6,6617.59
18602.3,6618.97
18593.2,6621.26
18584.3,6624.43
18575.8,6628.46
18567.7,6633.3
18560.1,6638.91
18553.2,6645.23
18546.8,6652.21
18541.2,6659.78
18536.4,6667.85
18532.4,6676.37
18529.2,6685.23
18526.9,6694.37
18525.5,6703.68
18525.1,6713.09
18525.1,6905.02
18525.5,6914.43
18526.9,6923.74
18529.2,6932.88
18532.4,6941.74
18536.4,6950.26
18541.2,6958.33
18546.8,6965.9
18553.2,6972.88
18560.1,6979.2
18567.7,6984.81
18575.8,6989.65
18584.3,6993.68
18593.2,6996.85
18602.3,6999.14
18611.6,7000.52
18621,7000.98
18980.3,7000.98
18989.7,7000.52
18999,6999.14
19008.1,6996.85
19017,6993.68
19025.5,6989.65
19033.6,6984.81
19041.2,6979.2
19048.1,6972.88
19054.5,6965.9
19060.1,6958.33
19064.9,6950.26
19068.9,6941.74
19072.1,6932.88
19074.4,6923.74
19075.8,6914.43
19076.2,6905.02
19076.2,6713.09
19075.8,6703.68
19074.4,6694.37
19072.1,6685.23
19068.9,6676.37
19064.9,6667.85
19060.1,6659.78
19054.5,6652.21
19048.1,6645.23
19041.2,6638.91
19033.6,6633.3
19025.5,6628.46
19017,6624.43
19008.1,6621.26
18999,6618.97
18989.7,6617.59
18980.3,6617.13
18621,6617.13
Z" /> 
</g>
<g >
</g>
<g style="fill:#000000; fill-opacity:1.0; 
stroke:#000000; stroke-width:0; stroke-opacity:1; 
stroke-linecap:round; stroke-linejoin:round;">
<path style="fill:#000000; fill-opacity:1.0; 
stroke:#000000; stroke-width:0; stroke-opacity:1; 
stroke-linecap:round; stroke-linejoin:round;fill-rule:evenodd;"
d="M 20580.1,5879.4
20570.8,5880.78
20561.7,5883.07
20552.8,5886.24
20544.3,5890.27
20536.2,5895.11
20528.7,5900.72
20521.7,5907.04
20515.3,5914.02
20509.7,5921.59
20504.9,5929.66
20500.9,5938.18
20497.7,5947.04
20495.4,5956.18
20494,5965.5
20493.6,5974.9
20493.6,6166.83
20494,6176.24
20495.4,6185.55
20497.7,6194.69
20500.9,6203.55
20504.9,6212.07
20509.7,6220.15
20515.3,6227.71
20521.7,6234.69
20528.7,6241.01
20536.2,6246.62
20544.3,6251.46
20552.8,6255.49
20561.7,6258.66
20570.8,6260.95
20580.1,6262.33
20589.5,6262.8
20948.8,6262.8
20958.2,6262.33
20967.5,6260.95
20976.6,6258.66
20985.5,6255.49
20994,6251.46
21002.1,6246.62
21009.7,6241.01
21016.6,6234.69
21023,6227.71
21028.6,6220.15
21033.4,6212.07
21037.4,6203.55
21040.6,6194.69
21042.9,6185.55
21044.3,6176.24
21044.7,6166.83
21044.7,5974.9
21044.3,5965.5
21042.9,5956.18
21040.6,5947.04
21037.4,5938.18
21033.4,5929.66
21028.6,5921.59
21023,5914.02
21016.6,5907.04
21009.7,5900.72
21002.1,5895.11
20994,5890.27
20985.5,5886.24
20976.6,5883.07
20967.5,5880.78
20958.2,5879.4
20948.8,5878.94
20589.5,5878.94
Z" /> 
<path style="fill:#000000; fill-opacity:1.0; 
stroke:#000000; stroke-width:0; stroke-opacity:1; 
stroke-linecap:round; stroke-linejoin:round;fill-rule:evenodd;"
d="M 20580.1,6617.59
20570.8,6618.97
20561.7,6621.26
20552.8,6624.43
20544.3,6628.46
20536.2,6633.3
20528.7,6638.91
20521.7,6645.23
20515.3,6652.21
20509.7,6659.78
20504.9,6667.85
20500.9,6676.37
20497.7,6685.23
20495.4,6694.37
20494,6703.68
20493.6,6713.09
20493.6,6905.02
20494,6914.43
20495.4,6923.74
20497.7,6932.88
20500.9,6941.74
20504.9,6950.26
20509.7,6958.33
20515.3,6965.9
20521.7,6972.88
20528.7,6979.2
20536.2,6984.81
20544.3,6989.65
20552.8,6993.68
20561.7,6996.85
20570.8,6999.14
20580.1,7000.52
20589.5,7000.98
20948.8,7000.98
20958.2,7000.52
20967.5,6999.14
20976.6,6996.85
20985.5,6993.68
20994,6989.65
21002.1,6984.81
21009.7,6979.2
21016.6,6972.88
21023,6965.9
21028.6,6958.33
21033.4,6950.26
21037.4,6941.74
21040.6,6932.88
21042.9,6923.74
21044.3,6914.43
21044.7,6905.02
21044.7,6713.09
21044.3,6703.68
21042.9,6694.37
21040.6,6685.23
21037.4,6676.37
21033.4,6667.85
21028.6,6659.78
21023,6652.21
21016.6,6645.23
21009.7,6638.91
21002.1,6633.3
20994,6628.46
20985.5,6624.43
20976.6,6621.26
20967.5,6618.97
20958.2,6617.59
20948.8,6617.13
20589.5,6617.13
Z" /> 
</g>
<g >
</g>
<g style="fill:#000000; fill-opacity:1.0; 
stroke:#000000; stroke-width:0; stroke-opacity:1; 
stroke-linecap:round; stroke-linejoin:round;">
<path style="fill:#000000; fill-opacity:1.0; 
stroke:#000000; stroke-width:0; stroke-opacity:1; 
stroke-linecap:round; stroke-linejoin:round;fill-rule:evenodd;"
d="M 22548.6,5879.4
22539.3,5880.78
22530.2,5883.07
22521.3,5886.24
22512.8,5890.27
22504.7,5895.11
22497.2,5900.72
22490.2,5907.04
22483.9,5914.02
22478.2,5921.59
22473.4,5929.66
22469.4,5938.18
22466.2,5947.04
22463.9,5956.18
22462.5,5965.5
22462.1,5974.9
22462.1,6166.83
22462.5,6176.24
22463.9,6185.55
22466.2,6194.69
22469.4,6203.55
22473.4,6212.07
22478.2,6220.15
22483.9,6227.71
22490.2,6234.69
22497.2,6241.01
22504.7,6246.62
22512.8,6251.46
22521.3,6255.49
22530.2,6258.66
22539.3,6260.95
22548.6,6262.33
22558,6262.8
22917.3,6262.8
22926.7,6262.33
22936,6260.95
22945.1,6258.66
22954,6255.49
22962.5,6251.46
22970.6,6246.62
22978.2,6241.01
22985.1,6234.69
22991.5,6227.71
22997.1,6220.15
23001.9,6212.07
23005.9,6203.55
23009.1,6194.69
23011.4,6185.55
23012.8,6176.24
23013.3,6166.83
23013.3,5974.9
23012.8,5965.5
23011.4,5956.18
23009.1,5947.04
23005.9,5938.18
23001.9,5929.66
22997.1,5921.59
22991.5,5914.02
22985.1,5907.04
22978.2,5900.72
22970.6,5895.11
22962.5,5890.27
22954,5886.24
22945.1,5883.07
22936,5880.78
22926.7,5879.4
22917.3,5878.94
22558,5878.94
Z" /> 
<path style="fill:#000000; fill-opacity:1.0; 
stroke:#000000; stroke-width:0; stroke-opacity:1; 
stroke-linecap:round; stroke-linejoin:round;fill-rule:evenodd;"
d="M 22548.6,6617.59
22539.3,6618.97
22530.2,6621.26
22521.3,6624.43
22512.8,6628.46
22504.7,6633.3
22497.2,6638.91
22490.2,6645.23
22483.9,6652.21
22478.2,6659.78
22473.4,6667.85
22469.4,6676.37
22466.2,6685.23
22463.9,6694.37
22462.5,6703.68
22462.1,6713.09
22462.1,6905.02
22462.5,6914.43
22463.9,6923.74
22466.2,6932.88
22469.4,6941.74
22473.4,6950.26
22478.2,6958.33
22483.9,6965.9
22490.2,6972.88
22497.2,6979.2
22504.7,6984.81
22512.8,6989.65
22521.3,6993.68
22530.2,6996.85
22539.3,6999.14
22548.6,7000.52
22558,7000.98
22917.3,7000.98
22926.7,7000.52
22936,6999.14
22945.1,6996.85
22954,6993.68
22962.5,6989.65
22970.6,6984.81
22978.2,6979.2
22985.1,6972.88
22991.5,6965.9
22997.1,6958.33
23001.9,6950.26
23005.9,6941.74
23009.1,6932.88
23011.4,6923.74
23012.8,6914.43
23013.3,6905.02
23013.3,6713.09
23012.8,6703.68
23011.4,6694.37
23009.1,6685.23
23005.9,6676.37
23001.9,6667.85
22997.1,6659.78
22991.5,6652.21
22985.1,6645.23
22978.2,6638.91
22970.6,6633.3
22962.5,6628.46
22954,6624.43
22945.1,6621.26
22936,6618.97
22926.7,6617.59
22917.3,6617.13
22558,6617.13
Z" /> 
</g>
<g >
</g>
<g style="fill:#000000; fill-opacity:1.0; 
stroke:#000000; stroke-width:0; stroke-opacity:1; 
stroke-linecap:round; stroke-linejoin:round;">
<path style="fill:#000000; fill-opacity:1.0; 
stroke:#000000; stroke-width:0; stroke-opacity:1; 
stroke-linecap:round; stroke-linejoin:round;fill-rule:evenodd;"
d="M 24517.1,5879.4
24507.8,5880.78
24498.7,5883.07
24489.8,5886.24
24481.3,5890.27
24473.2,5895.11
24465.7,5900.72
24458.7,5907.04
24452.4,5914.02
24446.7,5921.59
24441.9,5929.66
24437.9,5938.18
24434.7,5947.04
24432.4,5956.18
24431,5965.5
24430.6,5974.9
24430.6,6166.83
24431,6176.24
24432.4,6185.55
24434.7,6194.69
24437.9,6203.55
24441.9,6212.07
24446.7,6220.15
24452.4,6227.71
24458.7,6234.69
24465.7,6241.01
24473.2,6246.62
24481.3,6251.46
24489.8,6255.49
24498.7,6258.66
24507.8,6260.95
24517.1,6262.33
24526.5,6262.8
24885.8,6262.8
24895.2,6262.33
24904.5,6260.95
24913.6,6258.66
24922.5,6255.49
24931,6251.46
24939.1,6246.62
24946.7,6241.01
24953.6,6234.69
24960,6227.71
24965.6,6220.15
24970.4,6212.07
24974.5,6203.55
24977.6,6194.69
24979.9,6185.55
24981.3,6176.24
24981.8,6166.83
24981.8,5974.9
24981.3,5965.5
24979.9,5956.18
24977.6,5947.04
24974.5,5938.18
24970.4,5929.66
24965.6,5921.59
24960,5914.02
24953.6,5907.04
24946.7,5900.72
24939.1,5895.11
24931,5890.27
24922.5,5886.24
24913.6,5883.07
24904.5,5880.78
24895.2,5879.4
24885.8,5878.94
24526.5,5878.94
Z" /> 
<path style="fill:#000000; fill-opacity:1.0; 
stroke:#000000; stroke-width:0; stroke-opacity:1; 
stroke-linecap:round; stroke-linejoin:round;fill-rule:evenodd;"
d="M 24517.1,6617.59
24507.8,6618.97
24498.7,6621.26
24489.8,6624.43
24481.3,6628.46
24473.2,6633.3
24465.7,6638.91
24458.7,6645.23
24452.4,6652.21
24446.7,6659.78
24441.9,6667.85
24437.9,6676.37
24434.7,6685.23
24432.4,6694.37
24431,6703.68
24430.6,6713.09
24430.6,6905.02
24431,6914.43
24432.4,6923.74
24434.7,6932.88
24437.9,6941.74
24441.9,6950.26
24446.7,6958.33
24452.4,6965.9
24458.7,6972.88
24465.7,6979.2
24473.2,6984.81
24481.3,6989.65
24489.8,6993.68
24498.7,6996.85
24507.8,6999.14
24517.1,7000.52
24526.5,7000.98
24885.8,7000.98
24895.2,7000.52
24904.5,6999.14
24913.6,6996.85
24922.5,6993.68
24931,6989.65
24939.1,6984.81
24946.7,6979.2
24953.6,6972.88
24960,6965.9
24965.6,6958.33
24970.4,6950.26
24974.5,6941.74
24977.6,6932.88
24979.9,6923.74
24981.3,6914.43
24981.8,6905.02
24981.8,6713.09
24981.3,6703.68
24979.9,6694.37
24977.6,6685.23
24974.5,6676.37
24970.4,6667.85
24965.6,6659.78
24960,6652.21
24953.6,6645.23
24946.7,6638.91
24939.1,6633.3
24931,6628.46
24922.5,6624.43
24913.6,6621.26
24904.5,6618.97
24895.2,6617.59
24885.8,6617.13
24526.5,6617.13
Z" /> 
</g>
<g >
</g>
<g style="fill:#000000; fill-opacity:1.0; 
stroke:#000000; stroke-width:0; stroke-opacity:1; 
stroke-linecap:round; stroke-linejoin:round;">
<path style="fill:#000000; fill-opacity:1.0; 
stroke:#000000; stroke-width:0; stroke-opacity:1; 
stroke-linecap:round; stroke-linejoin:round;fill-rule:evenodd;"
d="M 26485.6,5879.4
26476.3,5880.78
26467.2,5883.07
26458.3,5886.24
26449.8,5890.27
26441.7,5895.11
26434.2,5900.72
26427.2,5907.04
26420.9,5914.02
26415.3,5921.59
26410.4,5929.66
26406.4,5938.18
26403.2,5947.04
26400.9,5956.18
26399.5,5965.5
26399.1,5974.9
26399.1,6166.83
26399.5,6176.24
26400.9,6185.55
26403.2,6194.69
26406.4,6203.55
26410.4,6212.07
26415.3,6220.15
26420.9,6227.71
26427.2,6234.69
26434.2,6241.01
26441.7,6246.62
26449.8,6251.46
26458.3,6255.49
26467.2,6258.66
26476.3,6260.95
26485.6,6262.33
26495,6262.8
26854.3,6262.8
26863.7,6262.33
26873,6260.95
26882.2,6258.66
26891,6255.49
26899.5,6251.46
26907.6,6246.62
26915.2,6241.01
26922.2,6234.69
26928.5,6227.71
26934.1,6220.15
26938.9,6212.07
26943,6203.55
26946.1,6194.69
26948.4,6185.55
26949.8,6176.24
26950.3,6166.83
26950.3,5974.9
26949.8,5965.5
26948.4,5956.18
26946.1,5947.04
26943,5938.18
26938.9,5929.66
26934.1,5921.59
26928.5,5914.02
26922.2,5907.04
26915.2,5900.72
26907.6,5895.11
26899.5,5890.27
26891,5886.24
26882.2,5883.07
26873,5880.78
26863.7,5879.4
26854.3,5878.94
26495,5878.94
Z" /> 
<path style="fill:#000000; fill-opacity:1.0; 
stroke:#000000; stroke-width:0; stroke-opacity:1; 
stroke-linecap:round; stroke-linejoin:round;fill-rule:evenodd;"
d="M 26485.6,6617.59
26476.3,6618.97
26467.2,6621.26
26458.3,6624.43
26449.8,6628.46
26441.7,6633.3
26434.2,6638.91
26427.2,6645.23
26420.9,6652.21
26415.3,6659.78
26410.4,6667.85
26406.4,6676.37
26403.2,6685.23
26400.9,6694.37
26399.5,6703.68
26399.1,6713.09
26399.1,6905.02
26399.5,6914.43
26400.9,6923.74
26403.2,6932.88
26406.4,6941.74
26410.4,6950.26
26415.3,6958.33
26420.9,6965.9
26427.2,6972.88
26434.2,6979.2
26441.7,6984.81
26449.8,6989.65
26458.3,6993.68
26467.2,6996.85
26476.3,6999.14
26485.6,7000.52
26495,7000.98
26854.3,7000.98
26863.7,7000.52
26873,6999.14
26882.2,6996.85
26891,6993.68
26899.5,6989.65
26907.6,6984.81
26915.2,6979.2
26922.2,6972.88
26928.5,6965.9
26934.1,6958.33
26938.9,6950.26
26943,6941.74
26946.1,6932.88
26948.4,6923.74
26949.8,6914.43
26950.3,6905.02
26950.3,6713.09
26949.8,6703.68
26948.4,6694.37
26946.1,6685.23
26943,6676.37
26938.9,6667.85
26934.1,6659.78
26928.5,6652.21
26922.2,6645.23
26915.2,6638.91
26907.6,6633.3
26899.5,6628.46
26891,6624.43
26882.2,6621.26
26873,6618.97
26863.7,6617.59
26854.3,6617.13
26495,6617.13
Z" /> 
</g>
<g >
</g>
<g style="fill:#000000; fill-opacity:1.0; 
stroke:#000000; stroke-width:0; stroke-opacity:1; 
stroke-linecap:round; stroke-linejoin:round;">
<path style="fill:#000000; fill-opacity:1.0; 
stroke:#000000; stroke-width:0; stroke-opacity:1; 
stroke-linecap:round; stroke-linejoin:round;fill-rule:evenodd;"
d="M 28454.1,5879.4
28444.8,5880.78
28435.7,5883.07
28426.8,5886.24
28418.3,5890.27
28410.2,5895.11
28402.7,5900.72
28395.7,5907.04
28389.4,5914.02
28383.8,5921.59
28378.9,5929.66
28374.9,5938.18
28371.7,5947.04
28369.4,5956.18
28368,5965.5
28367.6,5974.9
28367.6,6166.83
28368,6176.24
28369.4,6185.55
28371.7,6194.69
28374.9,6203.55
28378.9,6212.07
28383.8,6220.15
28389.4,6227.71
28395.7,6234.69
28402.7,6241.01
28410.2,6246.62
28418.3,6251.46
28426.8,6255.49
28435.7,6258.66
28444.8,6260.95
28454.1,6262.33
28463.5,6262.8
28822.8,6262.8
28832.2,6262.33
28841.5,6260.95
28850.7,6258.66
28859.5,6255.49
28868,6251.46
28876.1,6246.62
28883.7,6241.01
28890.7,6234.69
28897,6227.71
28902.6,6220.15
28907.4,6212.07
28911.5,6203.55
28914.6,6194.69
28916.9,6185.55
28918.3,6176.24
28918.8,6166.83
28918.8,5974.9
28918.3,5965.5
28916.9,5956.18
28914.6,5947.04
28911.5,5938.18
28907.4,5929.66
28902.6,5921.59
28897,5914.02
28890.7,5907.04
28883.7,5900.72
28876.1,5895.11
28868,5890.27
28859.5,5886.24
28850.7,5883.07
28841.5,5880.78
28832.2,5879.4
28822.8,5878.94
28463.5,5878.94
Z" /> 
<path style="fill:#000000; fill-opacity:1.0; 
stroke:#000000; stroke-width:0; stroke-opacity:1; 
stroke-linecap:round; stroke-linejoin:round;fill-rule:evenodd;"
d="M 28454.1,6617.59
28444.8,6618.97
28435.7,6621.26
28426.8,6624.43
28418.3,6628.46
28410.2,6633.3
28402.7,6638.91
28395.7,6645.23
28389.4,6652.21
28383.8,6659.78
28378.9,6667.85
28374.9,6676.37
28371.7,6685.23
28369.4,6694.37
28368,6703.68
28367.6,6713.09
28367.6,6905.02
28368,6914.43
28369.4,6923.74
28371.7,6932.88
28374.9,6941.74
28378.9,6950.26
28383.8,6958.33
28389.4,6965.9
28395.7,6972.88
28402.7,6979.2
28410.2,6984.81
28418.3,6989.65
28426.8,6993.68
28435.7,6996.85
28444.8,6999.14
28454.1,7000.52
28463.5,7000.98
28822.8,7000.98
28832.2,7000.52
28841.5,6999.14
28850.7,6996.85
28859.5,6993.68
28868,6989.65
28876.1,6984.81
28883.7,6979.2
28890.7,6972.88
28897,6965.9
28902.6,6958.33
28907.4,6950.26
28911.5,6941.74
28914.6,6932.88
28916.9,6923.74
28918.3,6914.43
28918.8,6905.02
28918.8,6713.09
28918.3,6703.68
28916.9,6694.37
28914.6,6685.23
28911.5,6676.37
28907.4,6667.85
28902.6,6659.78
28897,6652.21
28890.7,6645.23
28883.7,6638.91
28876.1,6633.3
28868,6628.46
28859.5,6624.43
28850.7,6621.26
28841.5,6618.97
28832.2,6617.59
28822.8,6617.13
28463.5,6617.13
Z" /> 
</g>
<g >
</g>
<g >
</g>
<g style="fill:#000000; fill-opacity:1.0; 
stroke:#000000; stroke-width:0; stroke-opacity:1; 
stroke-linecap:round; stroke-linejoin:round;">
</g>
<g style="fill:#000000; fill-opacity:1.0; 
stroke:#000000; stroke-width:393.701; stroke-opacity:1; 
stroke-linecap:round; stroke-linejoin:round;">
</g>
<g style="fill:#000000; fill-opacity:0.0; 
stroke:#000000; stroke-width:393.701; stroke-opacity:1; 
stroke-linecap:round; stroke-linejoin:round;">
<path d="M28643 6070
L28643 5475
" />
<path d="M28643 5475
L28623 5455
" />
<path d="M10926 5554
L10926 6070
" />
<path d="M11025 5455
L10926 5554
" />
<path d="M26694 6051
L26674 6070
" />
<path d="M26694 5455
L26694 6051
" />
<path d="M28623 5455
L26694 5455
" />
<path d="M24686 6051
L24706 6070
" />
<path d="M24686 5455
L24686 6051
" />
<path d="M26694 5455
L24686 5455
" />
<path d="M22737 5475
L22717 5455
" />
<path d="M22737 6070
L22737 5475
" />
<path d="M24686 5455
L22717 5455
" />
<path d="M20769 5554
L20670 5455
" />
<path d="M20769 6070
L20769 5554
" />
<path d="M22717 5455
L20670 5455
" />
<path d="M18800 5554
L18899 5455
" />
<path d="M18800 6070
L18800 5554
" />
<path d="M20670 5455
L18899 5455
" />
<path d="M16832 5632
L16654 5455
" />
<path d="M16832 6070
L16832 5632
" />
<path d="M18899 5455
L16654 5455
" />
<path d="M14863 5475
L14883 5455
" />
<path d="M14863 6070
L14863 5475
" />
<path d="M16654 5455
L14883 5455
" />
<path d="M12895 5554
L12796 5455
" />
<path d="M12796 5455
L11025 5455
" />
<path d="M12895 6070
L12895 5554
" />
<path d="M14883 5455
L12796 5455
" />
<path d="M28643 6809
L28643 8039
" />
<path d="M26674 6809
L26674 8039
" />
<path d="M24706 6809
L24706 8039
" />
<path d="M22737 6809
L22737 8039
" />
<path d="M20769 6809
L20769 8039
" />
<path d="M18800 6809
L18800 8039
" />
<path d="M16832 6809
L16832 8039
" />
<path d="M14863 6809
L14863 8039
" />
<path d="M12895 6809
L12895 8039
" />
<path d="M10926 6809
L10926 8039
" />
<path d="M30808 8743
L30808 8191
" />
<path d="M31025 8959
L30808 8743
" />
<path d="M30808 8191
L30355 7739
" />
<path d="M30355 7739
L30355 6006
" />
<path d="M29804 5455
L28623 5455
" />
<path d="M30355 6006
L29804 5455
" />
<path d="M28643 8777
L28643 9589
" />
<path d="M10926 9589
L10926 8802
" />
<path d="M12895 8777
L12895 9589
" />
<path d="M12895 9589
L10926 9589
" />
<path d="M14863 8777
L14863 9589
" />
<path d="M14863 9589
L12895 9589
" />
<path d="M16832 8777
L16832 9589
" />
<path d="M16832 9589
L14863 9589
" />
<path d="M18800 8777
L18800 9589
" />
<path d="M18800 9589
L16832 9589
" />
<path d="M20769 8777
L20769 9589
" />
<path d="M20769 9589
L18800 9589
" />
<path d="M22737 8777
L22737 9589
" />
<path d="M22737 9589
L20769 9589
" />
<path d="M24706 8777
L24706 9589
" />
<path d="M24706 9589
L22737 9589
" />
<path d="M26674 8777
L26674 9589
" />
<path d="M26674 9589
L24706 9589
" />
<path d="M28643 9589
L26674 9589
" />
<path d="M30040 8959
L30040 9313
" />
<path d="M29765 9589
L28643 9589
" />
<path d="M30040 9313
L29765 9589
" />
</g>
<g >
</g>
</g>
<g style="fill:#FFFFFF; fill-opacity:0.0; 
stroke:#FFFFFF; stroke-width:393.701; stroke-opacity:1; 
stroke-linecap:round; stroke-linejoin:round;">
</g>
<g style="fill:#FFFFFF; fill-opacity:1.0; 
stroke:#FFFFFF; stroke-width:0; stroke-opacity:1; 
stroke-linecap:round; stroke-linejoin:round;">
<circle cx="30040.8" cy="8959.65" r="196.85" /> 
</g>
<g style="fill:#FFFFFF; fill-opacity:1.0; 
stroke:#FFFFFF; stroke-width:39.3701; stroke-opacity:1; 
stroke-linecap:round; stroke-linejoin:round;">
</g>
<g style="fill:#FFFFFF; fill-opacity:1.0; 
stroke:#FFFFFF; stroke-width:0; stroke-opacity:1; 
stroke-linecap:round; stroke-linejoin:round;">
<circle cx="31025.1" cy="8959.65" r="196.85" /> 
</g>
<g style="fill:#FFFFFF; fill-opacity:1.0; 
stroke:#FFFFFF; stroke-width:39.3701; stroke-opacity:1; 
stroke-linecap:round; stroke-linejoin:round;">
</g>
<g style="fill:#FFFFFF; fill-opacity:1.0; 
stroke:#FFFFFF; stroke-width:0; stroke-opacity:1; 
stroke-linecap:round; stroke-linejoin:round;">
<circle cx="7462.07" cy="7463.58" r="492.126" /> 
</g>
<g style="fill:#FFFFFF; fill-opacity:1.0; 
stroke:#FFFFFF; stroke-width:39.3701; stroke-opacity:1; 
stroke-linecap:round; stroke-linejoin:round;">
</g>
<g style="fill:#FFFFFF; fill-opacity:1.0; 
stroke:#FFFFFF; stroke-width:0; stroke-opacity:1; 
stroke-linecap:round; stroke-linejoin:round;">
<circle cx="32068.4" cy="7502.95" r="492.126" /> 
</g>
<g style="fill:#FFFFFF; fill-opacity:1.0; 
stroke:#FFFFFF; stroke-width:39.3701; stroke-opacity:1; 
stroke-linecap:round; stroke-linejoin:round;">
</g>
<g style="fill:#000000; fill-opacity:1.0; 
stroke:#000000; stroke-width:39.3701; stroke-opacity:1; 
stroke-linecap:round; stroke-linejoin:round;">
</g> 
</svg>
